<svg width="118" height="17" viewBox="0 0 118 17" fill="none" xmlns="http://www.w3.org/2000/svg">
<path d="M32.1898 0.166626H20.5369L20.1193 0.495297V10.6653H23.3251V6.83705L23.619 6.55148H32.1898C34.3572 6.55148 35.3544 5.97765 35.3544 4.50671V2.16829C35.3544 0.73776 34.3572 0.166626 32.1898 0.166626ZM32.1898 3.9248C32.1898 4.61986 31.731 4.73301 30.6899 4.73301H23.674L23.3388 4.44744V2.29222L23.6328 2.00665H30.7119C31.7118 2.00665 32.2118 2.12788 32.2118 2.81486V3.91672L32.1898 3.9248Z" fill="white"/>
<path d="M41.277 2.08749L44.068 6.09082L43.9004 6.4599H37.736L36.1537 8.37805H45.3179L45.9826 8.74713L47.4001 10.6653H51.1059L42.9856 0.0454102" fill="white"/>
<path d="M78.0543 8.62323V5.76486L78.3894 5.47929H84.595V3.68237H74.7661V10.6653H89.2595V8.86838H78.4307" fill="white"/>
<path d="M89.3858 0.169342H74.7661V2.1306H89.3858V0.169342Z" fill="white"/>
<path d="M58.4816 2.04708H70.2691C70.1015 0.576136 69.1428 0.161255 66.8106 0.161255H58.3552C55.6906 0.161255 54.8555 0.651569 54.8555 2.65323V8.21371C54.8555 10.175 55.6796 10.7057 58.3552 10.7057H66.8023C69.1758 10.7057 70.0988 10.2558 70.1757 8.74444H58.4733L58.1382 8.41846V2.29223" fill="white"/>
<path d="M12.2051 4.25078H3.66729L3.41731 3.96522V2.1683L3.66729 1.96355H15.2048L15.3697 1.59716C14.9961 0.616534 13.9549 0.126221 12.0732 0.126221H4.04089C1.37626 0.126221 0.543913 0.616535 0.543913 2.6182V3.80357C0.543913 5.76214 1.36802 6.29555 4.04089 6.29555H12.5814L12.8314 6.54071V8.42653L12.6226 8.7121H0.293932C0.293932 8.7121 0 8.87644 0 8.91685C0.208775 10.307 1.16749 10.6734 3.45852 10.6734H12.2051C14.8697 10.6734 15.746 10.183 15.746 8.18138V6.74276C15.746 4.7842 14.8697 4.25078 12.2051 4.25078Z" fill="white"/>
<path d="M98.082 0H93.25L93 0.490314L98.332 4.32931C99.3319 3.75817 100.455 3.18704 101.628 2.61321" fill="white"/>
<path d="M98 4.12559L102.706 7.47427H107.538L107.746 7.02437L100.75 2C99.8323 2.69506 98.8736 3.39012 98.0027 4.12559" fill="white"/>
<path d="M113.236 3.8147e-06H117.609L117.983 0.571138C115.027 3.39179 101.775 15.3883 73 16.6653C73 16.6653 97.1162 15.8571 113.236 3.8147e-06Z" fill="#B2B0B2"/>
</svg>
